<mxfile host="app.diagrams.net" agent="Mozilla/5.0 (X11; Ubuntu; Linux x86_64; rv:140.0) Gecko/20100101 Firefox/140.0" version="27.2.0" pages="2">
  <diagram name="Page-1" id="jBgz-ym5a9nwx9cZwZVM">
    <mxGraphModel dx="1426" dy="795" grid="1" gridSize="10" guides="1" tooltips="1" connect="1" arrows="1" fold="1" page="1" pageScale="1" pageWidth="850" pageHeight="1100" background="#ffffff" math="0" shadow="0">
      <root>
        <mxCell id="0" />
        <mxCell id="1" parent="0" />
        <mxCell id="VqZS6xl_8dlWHDrLHxbJ-15" value="&lt;div&gt;Transactional&lt;/div&gt;&lt;div&gt;Binlog&lt;/div&gt;" style="whiteSpace=wrap;html=1;aspect=fixed;" parent="1" vertex="1">
          <mxGeometry x="140" y="370" width="80" height="80" as="geometry" />
        </mxCell>
        <mxCell id="VqZS6xl_8dlWHDrLHxbJ-17" value="CDC (Debezium)" style="shape=process;whiteSpace=wrap;html=1;backgroundOutline=1;" parent="1" vertex="1">
          <mxGeometry x="260" y="330" width="190" height="40" as="geometry" />
        </mxCell>
        <mxCell id="VqZS6xl_8dlWHDrLHxbJ-18" style="edgeStyle=orthogonalEdgeStyle;rounded=0;orthogonalLoop=1;jettySize=auto;html=1;entryX=0.526;entryY=1;entryDx=0;entryDy=0;entryPerimeter=0;flowAnimation=1;" parent="1" source="VqZS6xl_8dlWHDrLHxbJ-15" target="VqZS6xl_8dlWHDrLHxbJ-17" edge="1">
          <mxGeometry relative="1" as="geometry" />
        </mxCell>
        <mxCell id="VqZS6xl_8dlWHDrLHxbJ-29" style="edgeStyle=orthogonalEdgeStyle;rounded=0;orthogonalLoop=1;jettySize=auto;html=1;flowAnimation=1;" parent="1" source="VqZS6xl_8dlWHDrLHxbJ-25" target="VqZS6xl_8dlWHDrLHxbJ-15" edge="1">
          <mxGeometry relative="1" as="geometry" />
        </mxCell>
        <mxCell id="VqZS6xl_8dlWHDrLHxbJ-25" value="Data store A" style="sketch=0;points=[[0,0,0],[0.25,0,0],[0.5,0,0],[0.75,0,0],[1,0,0],[0,1,0],[0.25,1,0],[0.5,1,0],[0.75,1,0],[1,1,0],[0,0.25,0],[0,0.5,0],[0,0.75,0],[1,0.25,0],[1,0.5,0],[1,0.75,0]];outlineConnect=0;fontColor=#232F3E;fillColor=#C925D1;strokeColor=#ffffff;dashed=0;verticalLabelPosition=bottom;verticalAlign=top;align=center;html=1;fontSize=12;fontStyle=0;aspect=fixed;shape=mxgraph.aws4.resourceIcon;resIcon=mxgraph.aws4.database;" parent="1" vertex="1">
          <mxGeometry x="142" y="220" width="78" height="78" as="geometry" />
        </mxCell>
        <mxCell id="9xs1aoTW1_BKFRGqyAdc-6" value="" style="edgeStyle=orthogonalEdgeStyle;rounded=0;orthogonalLoop=1;jettySize=auto;html=1;flowAnimation=1;" edge="1" parent="1" source="VqZS6xl_8dlWHDrLHxbJ-26" target="VqZS6xl_8dlWHDrLHxbJ-30">
          <mxGeometry relative="1" as="geometry" />
        </mxCell>
        <mxCell id="VqZS6xl_8dlWHDrLHxbJ-26" value="Kafka" style="sketch=0;points=[[0,0,0],[0.25,0,0],[0.5,0,0],[0.75,0,0],[1,0,0],[0,1,0],[0.25,1,0],[0.5,1,0],[0.75,1,0],[1,1,0],[0,0.25,0],[0,0.5,0],[0,0.75,0],[1,0.25,0],[1,0.5,0],[1,0.75,0]];outlineConnect=0;fontColor=#232F3E;fillColor=#8C4FFF;strokeColor=#ffffff;dashed=0;verticalLabelPosition=bottom;verticalAlign=top;align=center;html=1;fontSize=12;fontStyle=0;aspect=fixed;shape=mxgraph.aws4.resourceIcon;resIcon=mxgraph.aws4.managed_streaming_for_kafka;" parent="1" vertex="1">
          <mxGeometry x="520" y="311" width="78" height="78" as="geometry" />
        </mxCell>
        <mxCell id="VqZS6xl_8dlWHDrLHxbJ-28" style="edgeStyle=orthogonalEdgeStyle;rounded=0;orthogonalLoop=1;jettySize=auto;html=1;exitX=1;exitY=0.5;exitDx=0;exitDy=0;entryX=0;entryY=0.5;entryDx=0;entryDy=0;entryPerimeter=0;flowAnimation=1;" parent="1" source="VqZS6xl_8dlWHDrLHxbJ-17" target="VqZS6xl_8dlWHDrLHxbJ-26" edge="1">
          <mxGeometry relative="1" as="geometry" />
        </mxCell>
        <mxCell id="VqZS6xl_8dlWHDrLHxbJ-30" value="Data store B" style="sketch=0;points=[[0,0,0],[0.25,0,0],[0.5,0,0],[0.75,0,0],[1,0,0],[0,1,0],[0.25,1,0],[0.5,1,0],[0.75,1,0],[1,1,0],[0,0.25,0],[0,0.5,0],[0,0.75,0],[1,0.25,0],[1,0.5,0],[1,0.75,0]];outlineConnect=0;fontColor=#232F3E;fillColor=#C925D1;strokeColor=#ffffff;dashed=0;verticalLabelPosition=bottom;verticalAlign=top;align=center;html=1;fontSize=12;fontStyle=0;aspect=fixed;shape=mxgraph.aws4.resourceIcon;resIcon=mxgraph.aws4.database;" parent="1" vertex="1">
          <mxGeometry x="680" y="311" width="78" height="78" as="geometry" />
        </mxCell>
        <mxCell id="VqZS6xl_8dlWHDrLHxbJ-37" value="UPDATE" style="endArrow=none;html=1;rounded=0;flowAnimation=1;" parent="1" edge="1">
          <mxGeometry x="-0.04" width="50" height="50" relative="1" as="geometry">
            <mxPoint x="42" y="280" as="sourcePoint" />
            <mxPoint x="142" y="280" as="targetPoint" />
            <mxPoint as="offset" />
          </mxGeometry>
        </mxCell>
        <mxCell id="VqZS6xl_8dlWHDrLHxbJ-38" value="" style="endArrow=none;html=1;rounded=0;flowAnimation=1;" parent="1" edge="1">
          <mxGeometry width="50" height="50" relative="1" as="geometry">
            <mxPoint x="42" y="240" as="sourcePoint" />
            <mxPoint x="142" y="240" as="targetPoint" />
          </mxGeometry>
        </mxCell>
        <mxCell id="VqZS6xl_8dlWHDrLHxbJ-39" value="INSERT" style="edgeLabel;html=1;align=center;verticalAlign=middle;resizable=0;points=[];" parent="VqZS6xl_8dlWHDrLHxbJ-38" vertex="1" connectable="0">
          <mxGeometry x="-0.1217" relative="1" as="geometry">
            <mxPoint as="offset" />
          </mxGeometry>
        </mxCell>
      </root>
    </mxGraphModel>
  </diagram>
  <diagram id="9qcniblwJUR2JX4J5uVD" name="Page-2">
    <mxGraphModel grid="1" page="1" gridSize="10" guides="1" tooltips="1" connect="1" arrows="1" fold="1" pageScale="1" pageWidth="850" pageHeight="1100" math="0" shadow="0">
      <root>
        <mxCell id="0" />
        <mxCell id="1" parent="0" />
      </root>
    </mxGraphModel>
  </diagram>
</mxfile>
